General
Complete name                    : Sleepless.in.Seattle.avi
Format                           : AVI
File size                        : 1.37 GiB
Duration                         : 1h 40mn
Overall bit rate                 : 1 944 Kbps

Video
ID                               : 0
Format                           : MPEG-4 Visual
Codec ID/Hint                    : XviD
Duration                         : 1h 40mn
Bit rate                         : 1 741 Kbps
Width                            : 702 pixels
Height                           : 550 pixels
Display aspect ratio             : 16:9essive
Bits/(Pixel*Frame)               : 0.180
Stream size                      : 1.23 GiB (90%)
Writing library                  : XviD 1.1.2 (UTC 2006-11-01)

Audio
ID                               : 1
Format                           : AC-3
Duration                         : 1h 40mn
Bit rate                         : 192 Kbps
Channel(s)                       : 2 channels
Sampling rate                    : 48.0 KHz
Stream size                      : 138 MiB (10%)
)

